# xmcd
#
# Track frame offsets:
#	150
#	18438
#	33871
#	54456
#	71510
#	92130
#	113456
#	135364
#	150944
#	166369
#	184342
#
# Disc length: 2726 seconds
#
# Revision: 1
# Processed by: cddbd v1.5.2PL0 Copyright (c) Steve Scherf et al.
# Submitted via: audiograbber 1.83.01
#
DISCID=7e0aa40b
DTITLE=Alexander Durefelt - Hearts on Repair
DYEAR=2009
DGENRE=Country
TTITLE0=Hearts on Repair
TTITLE1=Radioland
TTITLE2=Oh John
TTITLE3=Heavy Heart
TTITLE4=Björkbacken
TTITLE5=Darling
TTITLE6=Scarecrow
TTITLE7=Stay
TTITLE8=You Better Run
TTITLE9=So Sorry Sue
TTITLE10=Still a Light
EXTD=
EXTT0=
EXTT1=
EXTT2=
EXTT3=
EXTT4=
EXTT5=
EXTT6=
EXTT7=
EXTT8=
EXTT9=
EXTT10=
PLAYORDER=
